<svg xmlns="http://www.w3.org/2000/svg" xmlns:xlink="http://www.w3.org/1999/xlink" viewBox="0 0 380.12 341.71"><defs><style>.cls-1{fill:#fff;stroke:#1f140f;stroke-miterlimit:10;}.cls-2{fill:#e01521;}</style></defs><title>footer_1</title><g id="Capa_2" data-name="Capa 2"><g id="Capa_1-2" data-name="Capa 1"><path class="cls-1" d="M4.84,322.56H.5v-3.11a10.62,10.62,0,0,1,.33-3,4.52,4.52,0,0,1,1.23-2,6.37,6.37,0,0,1,2.29-1.36L5.2,315a3.57,3.57,0,0,0-1.86,1.2,3.54,3.54,0,0,0-.6,2.06h2.1Zm7.25,0H7.75v-3.11a10.6,10.6,0,0,1,.33-3,4.48,4.48,0,0,1,1.24-2,6.45,6.45,0,0,1,2.27-1.36l.85,1.8a3.66,3.66,0,0,0-1.86,1.2,3.62,3.62,0,0,0-.59,2.06h2.1Z"/><path class="cls-1" d="M15,331.35l4.36-.67a3.21,3.21,0,0,0,1.13,1.93,3.81,3.81,0,0,0,2.38.66,4.29,4.29,0,0,0,2.53-.62,1.39,1.39,0,0,0,.57-1.16,1.17,1.17,0,0,0-.3-.82,3.42,3.42,0,0,0-1.46-.57Q19,328.94,17.57,328a4.25,4.25,0,0,1-1.94-3.69,4.57,4.57,0,0,1,1.68-3.59c1.12-1,2.86-1.45,5.22-1.45a9.12,9.12,0,0,1,5,1.1,5.59,5.59,0,0,1,2.25,3.24l-4.09.76a2.51,2.51,0,0,0-1-1.47,3.62,3.62,0,0,0-2.09-.51,4.74,4.74,0,0,0-2.46.48,1,1,0,0,0-.49.88,1,1,0,0,0,.43.79,16.06,16.06,0,0,0,4.06,1.22A12.19,12.19,0,0,1,29,327.67a4,4,0,0,1,1.36,3.23,5,5,0,0,1-1.88,3.88,8.37,8.37,0,0,1-5.58,1.62A9.12,9.12,0,0,1,17.58,335,6.31,6.31,0,0,1,15,331.35Z"/><path class="cls-1" d="M34.15,317.4v-4h4.34v4Zm0,18.63V319.62h4.34V336Z"/><path class="cls-1" d="M52.45,330.81l4.32.72a7.06,7.06,0,0,1-2.63,3.63,7.74,7.74,0,0,1-4.51,1.24q-4.27,0-6.33-2.8A9.37,9.37,0,0,1,41.68,328a9.07,9.07,0,0,1,2.13-6.39,7,7,0,0,1,5.39-2.31A7.29,7.29,0,0,1,55,321.67c1.41,1.61,2.09,4.08,2,7.41H46.13a4.36,4.36,0,0,0,1,3,3.27,3.27,0,0,0,2.5,1.08,2.69,2.69,0,0,0,1.72-.56A3.48,3.48,0,0,0,52.45,330.81Zm.24-4.39a4.18,4.18,0,0,0-1-2.87,3.12,3.12,0,0,0-4.6.06,4,4,0,0,0-.92,2.81Z"/><path class="cls-1" d="M75.47,336H71.13v-8.37a13.13,13.13,0,0,0-.28-3.44,2.39,2.39,0,0,0-.91-1.21,2.56,2.56,0,0,0-1.5-.44,3.53,3.53,0,0,0-2,.62,3.13,3.13,0,0,0-1.22,1.64,13.73,13.73,0,0,0-.34,3.77V336H60.51V319.62h4V322A6.6,6.6,0,0,1,70,319.25a6.43,6.43,0,0,1,2.63.52,4.36,4.36,0,0,1,1.8,1.32,4.76,4.76,0,0,1,.85,1.82,13.58,13.58,0,0,1,.24,2.92Z"/><path class="cls-1" d="M87.4,319.62v3.46h-3v6.62a18.19,18.19,0,0,0,.08,2.34,1,1,0,0,0,.39.55,1.26,1.26,0,0,0,.73.21,5.54,5.54,0,0,0,1.75-.42l.37,3.37a8.5,8.5,0,0,1-3.43.65A5.52,5.52,0,0,1,82.2,336a3.28,3.28,0,0,1-1.38-1,4,4,0,0,1-.61-1.69,21.52,21.52,0,0,1-.14-3.06v-7.16h-2v-3.46h2v-3.26l4.36-2.53v5.79Z"/><path class="cls-1" d="M99.91,330.81l4.33.72a7.13,7.13,0,0,1-2.64,3.63,7.72,7.72,0,0,1-4.5,1.24c-2.85,0-5-.93-6.34-2.8A9.37,9.37,0,0,1,89.14,328a9.07,9.07,0,0,1,2.13-6.39,7,7,0,0,1,5.4-2.31,7.31,7.31,0,0,1,5.78,2.42q2.11,2.41,2,7.41H93.59a4.36,4.36,0,0,0,1,3,3.29,3.29,0,0,0,2.51,1.08,2.64,2.64,0,0,0,1.71-.56A3.48,3.48,0,0,0,99.91,330.81Zm.25-4.39a4.23,4.23,0,0,0-1-2.87,3.14,3.14,0,0,0-4.61.06,4,4,0,0,0-.91,2.81Z"/><path class="cls-1" d="M107.9,331.69h4.34v3.1a11.15,11.15,0,0,1-.32,3,4.43,4.43,0,0,1-1.23,2,6.27,6.27,0,0,1-2.3,1.36l-.85-1.79a3.61,3.61,0,0,0,1.87-1.19A3.56,3.56,0,0,0,110,336h-2.1Z"/><path class="cls-1" d="M129.75,336h-4.34V319.62h4V322a7,7,0,0,1,1.86-2.17,3.44,3.44,0,0,1,1.88-.53,5.48,5.48,0,0,1,2.86.82l-1.35,3.79a3.77,3.77,0,0,0-2-.72,2.36,2.36,0,0,0-1.54.51,3.35,3.35,0,0,0-1,1.81,26,26,0,0,0-.36,5.5Z"/><path class="cls-1" d="M147.41,330.81l4.32.72a7.06,7.06,0,0,1-2.63,3.63,7.72,7.72,0,0,1-4.5,1.24q-4.29,0-6.34-2.8a9.37,9.37,0,0,1-1.62-5.65,9.07,9.07,0,0,1,2.13-6.39,7,7,0,0,1,5.39-2.31,7.29,7.29,0,0,1,5.78,2.42q2.12,2.41,2,7.41H141.09a4.36,4.36,0,0,0,1,3,3.27,3.27,0,0,0,2.5,1.08,2.69,2.69,0,0,0,1.72-.56A3.48,3.48,0,0,0,147.41,330.81Zm.24-4.39a4.18,4.18,0,0,0-1-2.87,3.12,3.12,0,0,0-4.6.06,4,4,0,0,0-.91,2.81Z"/><path class="cls-1" d="M169.81,324.47l-4.28.78a3.11,3.11,0,0,0-1-1.94,3,3,0,0,0-2-.64,3.21,3.21,0,0,0-2.58,1.12,5.67,5.67,0,0,0-1,3.74,6.69,6.69,0,0,0,1,4.13,3.24,3.24,0,0,0,2.64,1.2,2.91,2.91,0,0,0,2-.7,4.15,4.15,0,0,0,1.11-2.42l4.27.73a7.62,7.62,0,0,1-2.55,4.43,7.89,7.89,0,0,1-5,1.5,7.52,7.52,0,0,1-5.74-2.27,10.37,10.37,0,0,1,0-12.62,7.67,7.67,0,0,1,5.81-2.26,7.94,7.94,0,0,1,4.77,1.29A7.11,7.11,0,0,1,169.81,324.47Z"/><path class="cls-1" d="M172.1,327.59a8.86,8.86,0,0,1,1.06-4.18,7.32,7.32,0,0,1,3-3.09,9,9,0,0,1,4.37-1.07,8.19,8.19,0,0,1,6.1,2.42,8.34,8.34,0,0,1,2.38,6.11,8.45,8.45,0,0,1-2.4,6.17,8.09,8.09,0,0,1-6,2.45,9.51,9.51,0,0,1-4.3-1,7,7,0,0,1-3.12-3A10,10,0,0,1,172.1,327.59Zm4.45.24a5.42,5.42,0,0,0,1.16,3.74,3.8,3.8,0,0,0,5.71,0,5.57,5.57,0,0,0,1.15-3.77,5.44,5.44,0,0,0-1.15-3.71,3.79,3.79,0,0,0-5.71,0A5.39,5.39,0,0,0,176.55,327.83Z"/><path class="cls-1" d="M196.59,336h-4.34V319.62h4V322a7,7,0,0,1,1.86-2.17,3.44,3.44,0,0,1,1.88-.53,5.48,5.48,0,0,1,2.86.82l-1.35,3.79a3.77,3.77,0,0,0-2-.72,2.36,2.36,0,0,0-1.54.51,3.42,3.42,0,0,0-1,1.81,26,26,0,0,0-.36,5.5Z"/><path class="cls-1" d="M208.9,336h-4.34V319.62h4V322a6.87,6.87,0,0,1,1.87-2.17,3.4,3.4,0,0,1,1.87-.53,5.48,5.48,0,0,1,2.86.82l-1.34,3.79a3.77,3.77,0,0,0-2-.72,2.39,2.39,0,0,0-1.55.51,3.42,3.42,0,0,0-1,1.81,25.13,25.13,0,0,0-.37,5.5Z"/><path class="cls-1" d="M226.56,330.81l4.33.72a7.13,7.13,0,0,1-2.64,3.63,7.72,7.72,0,0,1-4.5,1.24q-4.27,0-6.33-2.8a9.31,9.31,0,0,1-1.63-5.65,9,9,0,0,1,2.14-6.39,7,7,0,0,1,5.39-2.31,7.29,7.29,0,0,1,5.78,2.42q2.11,2.41,2,7.41H220.24a4.36,4.36,0,0,0,1,3,3.29,3.29,0,0,0,2.51,1.08,2.64,2.64,0,0,0,1.71-.56A3.35,3.35,0,0,0,226.56,330.81Zm.25-4.39a4.23,4.23,0,0,0-1-2.87,3.14,3.14,0,0,0-4.61.06,4,4,0,0,0-.91,2.81Z"/><path class="cls-1" d="M234.55,331.69h4.34v3.1a11.15,11.15,0,0,1-.32,3,4.43,4.43,0,0,1-1.23,2,6.31,6.31,0,0,1-2.29,1.36l-.85-1.79a3.7,3.7,0,0,0,1.87-1.19,3.56,3.56,0,0,0,.58-2.07h-2.1Z"/><path class="cls-1" d="M267.29,336h-4v-2.41a6.42,6.42,0,0,1-2.37,2.09,6.06,6.06,0,0,1-2.76.69,6.23,6.23,0,0,1-4.84-2.28,9.25,9.25,0,0,1-2-6.36q0-4.17,2-6.34a6.39,6.39,0,0,1,5-2.17,6.14,6.14,0,0,1,4.76,2.29v-8.16h4.34Zm-11.59-8.56a7.54,7.54,0,0,0,.73,3.8,3.29,3.29,0,0,0,2.94,1.7,3.18,3.18,0,0,0,2.54-1.27,5.89,5.89,0,0,0,1.06-3.81,6.43,6.43,0,0,0-1-4.07,3.35,3.35,0,0,0-5.2,0A5.52,5.52,0,0,0,255.7,327.47Z"/><path class="cls-1" d="M271.57,317.4v-4h4.34v4Zm0,18.63V319.62h4.34V336Z"/><path class="cls-1" d="M278.83,331.35l4.36-.67a3.21,3.21,0,0,0,1.13,1.93,3.79,3.79,0,0,0,2.38.66,4.29,4.29,0,0,0,2.53-.62,1.39,1.39,0,0,0,.57-1.16,1.13,1.13,0,0,0-.31-.82,3.31,3.31,0,0,0-1.45-.57q-5.25-1.16-6.66-2.12a4.22,4.22,0,0,1-1.94-3.69,4.57,4.57,0,0,1,1.68-3.59c1.12-1,2.86-1.45,5.22-1.45a9.12,9.12,0,0,1,5,1.1,5.59,5.59,0,0,1,2.25,3.24l-4.09.76a2.56,2.56,0,0,0-1-1.47,3.62,3.62,0,0,0-2.09-.51,4.74,4.74,0,0,0-2.46.48,1,1,0,0,0-.49.88,1,1,0,0,0,.43.79,15.9,15.9,0,0,0,4.06,1.22,12.19,12.19,0,0,1,4.84,1.93,4,4,0,0,1,1.36,3.23,5,5,0,0,1-1.88,3.88,8.37,8.37,0,0,1-5.58,1.62,9.12,9.12,0,0,1-5.31-1.36A6.27,6.27,0,0,1,278.83,331.35Z"/><path class="cls-1" d="M296.06,319.62h2.41v-1.23a8.29,8.29,0,0,1,.44-3.09,3.57,3.57,0,0,1,1.62-1.67,6.33,6.33,0,0,1,3-.64,12.07,12.07,0,0,1,3.63.56l-.58,3a8.36,8.36,0,0,0-2-.25,1.81,1.81,0,0,0-1.35.44,2.56,2.56,0,0,0-.41,1.69v1.16h3.25V323h-3.25v13h-4.34V323h-2.41Z"/><path class="cls-1" d="M312.66,336h-4.35V319.62h4V322a7,7,0,0,1,1.86-2.17,3.41,3.41,0,0,1,1.88-.53,5.45,5.45,0,0,1,2.85.82l-1.34,3.79a3.77,3.77,0,0,0-2-.72,2.41,2.41,0,0,0-1.55.51,3.42,3.42,0,0,0-1,1.81,26,26,0,0,0-.36,5.5Z"/><path class="cls-1" d="M331.61,336v-2.46a6.2,6.2,0,0,1-2.35,2.07,6.57,6.57,0,0,1-3.09.76,6,6,0,0,1-3-.72,4.31,4.31,0,0,1-1.9-2,9.17,9.17,0,0,1-.59-3.64V319.62h4.34v7.54a20.83,20.83,0,0,0,.24,4.24,2.32,2.32,0,0,0,.87,1.24,2.74,2.74,0,0,0,1.61.46,3.38,3.38,0,0,0,2-.62A3.09,3.09,0,0,0,331,331a17.49,17.49,0,0,0,.32-4.43v-6.92h4.35V336Z"/><path class="cls-1" d="M347.67,319.62v3.46h-3v6.62a15.6,15.6,0,0,0,.09,2.34.94.94,0,0,0,.38.55,1.27,1.27,0,0,0,.74.21,5.55,5.55,0,0,0,1.74-.42l.37,3.37a8.5,8.5,0,0,1-3.43.65,5.44,5.44,0,0,1-2.11-.39,3.25,3.25,0,0,1-1.39-1,4.18,4.18,0,0,1-.61-1.69,21.52,21.52,0,0,1-.14-3.06v-7.16h-2v-3.46h2v-3.26l4.36-2.53v5.79Z"/><path class="cls-1" d="M353.92,324.63l-3.94-.71a6.22,6.22,0,0,1,2.29-3.53,8.39,8.39,0,0,1,4.82-1.14,10.37,10.37,0,0,1,4.33.69,4.35,4.35,0,0,1,2,1.74,8.94,8.94,0,0,1,.58,3.89l-.05,5.07a17.52,17.52,0,0,0,.21,3.19,9.43,9.43,0,0,0,.78,2.2h-4.29a12.82,12.82,0,0,1-.42-1.28,3.53,3.53,0,0,0-.16-.51,7.75,7.75,0,0,1-2.38,1.62,6.78,6.78,0,0,1-2.7.54,5.6,5.6,0,0,1-4-1.37,4.56,4.56,0,0,1-1.46-3.48,4.69,4.69,0,0,1,.66-2.48,4.31,4.31,0,0,1,1.86-1.67,15,15,0,0,1,3.46-1,23.21,23.21,0,0,0,4.21-1.07v-.43a2.24,2.24,0,0,0-.61-1.78,3.69,3.69,0,0,0-2.34-.54,3,3,0,0,0-1.8.46A3.14,3.14,0,0,0,353.92,324.63Zm5.81,3.52a25.33,25.33,0,0,1-2.64.67,8,8,0,0,0-2.36.75,1.8,1.8,0,0,0-.85,1.53,2.16,2.16,0,0,0,.68,1.58,2.38,2.38,0,0,0,1.73.66,3.79,3.79,0,0,0,2.24-.77,2.7,2.7,0,0,0,1-1.44,8.18,8.18,0,0,0,.17-2.11Z"/><path class="cls-1" d="M368,313.38h4.34v3.12a10.57,10.57,0,0,1-.33,3,4.36,4.36,0,0,1-1.23,1.95,6.24,6.24,0,0,1-2.29,1.37l-.85-1.81a3.09,3.09,0,0,0,2.46-3.26H368Zm7.29,0h4.34v3.12a10.57,10.57,0,0,1-.33,3,4.57,4.57,0,0,1-1.24,1.95,6.28,6.28,0,0,1-2.28,1.37l-.85-1.81a3.63,3.63,0,0,0,1.86-1.2,3.47,3.47,0,0,0,.58-2.06h-2.08Z"/><path class="cls-2" d="M24.53,291.48h2.14a13,13,0,0,0,4.17,8.19,12.28,12.28,0,0,0,8.38,3,13.35,13.35,0,0,0,3.73-.5,8.78,8.78,0,0,0,2.9-1.39,6.37,6.37,0,0,0,1.86-2.13,6.29,6.29,0,0,0,.25-5,4.84,4.84,0,0,0-1.56-1.86,16.63,16.63,0,0,0-3.15-1.83c-1.34-.62-3.06-1.33-5.18-2.14-4.27-1.64-7.44-3.54-9.48-5.71a10.83,10.83,0,0,1-3.07-7.69,11.1,11.1,0,0,1,1-4.71A10.67,10.67,0,0,1,29.27,266a12.79,12.79,0,0,1,4.28-2.38,16.9,16.9,0,0,1,5.51-.85,15.49,15.49,0,0,1,5.26.88,19.32,19.32,0,0,1,4.87,2.62l1-2.73h1.31l.61,11.82H50a13.84,13.84,0,0,0-4.11-6.87,9.66,9.66,0,0,0-6.47-2.38,8.55,8.55,0,0,0-5.5,1.67,5.21,5.21,0,0,0-2.11,4.29,5.1,5.1,0,0,0,.38,2.05,4.49,4.49,0,0,0,1.43,1.73,15.22,15.22,0,0,0,2.85,1.67q1.8.84,4.65,1.88a52.23,52.23,0,0,1,6.55,3,19.73,19.73,0,0,1,4.44,3.22,11.84,11.84,0,0,1,2.55,3.64,10.55,10.55,0,0,1,.82,4.22,10.79,10.79,0,0,1-1.2,5.08,11.68,11.68,0,0,1-3.38,3.94,16.46,16.46,0,0,1-5.15,2.57,22.11,22.11,0,0,1-6.6.94,18.26,18.26,0,0,1-5.92-.91,20.88,20.88,0,0,1-5.42-2.93l-1.1,3.29H25.36Z"/><path class="cls-2" d="M76.76,286.94v-2.29A7.59,7.59,0,0,0,75.63,280a4.15,4.15,0,0,0-3.48-1.45,3.23,3.23,0,0,0-2.41.85,8,8,0,0,0-1.53,2.82,4.93,4.93,0,0,1-1.4,2.13,3.73,3.73,0,0,1-2.49.77,3,3,0,0,1-2.36-.93,3.84,3.84,0,0,1-.82-2.63c0-1.75,1-3.13,2.88-4.16s4.81-1.53,8.68-1.53c4.09,0,7,.74,8.77,2.22s2.63,3.95,2.63,7.41v12q0,4.65,1.86,4.65a2.93,2.93,0,0,0,1.92-.71L88.7,303a5.3,5.3,0,0,1-2.38,2.16,8.16,8.16,0,0,1-3.65.8,4.78,4.78,0,0,1-3.83-1.54,6.41,6.41,0,0,1-1.32-4.32h-.27a10.8,10.8,0,0,1-9.86,5.8A7.81,7.81,0,0,1,61.85,304a6.6,6.6,0,0,1-2.08-5.06,6.28,6.28,0,0,1,2.14-4.52A22.36,22.36,0,0,1,69,290.28Zm0,2.9a37.61,37.61,0,0,0-6.94,3.86q-2.32,1.79-2.32,3.69a3.54,3.54,0,0,0,.87,2.52,2.9,2.9,0,0,0,2.19.93,6.54,6.54,0,0,0,2.47-.46,6.33,6.33,0,0,0,2-1.23,5.46,5.46,0,0,0,1.29-1.84,5.63,5.63,0,0,0,.47-2.27Z"/><path class="cls-2" d="M103.44,296.52c0,1.5,0,2.67.14,3.53a4.33,4.33,0,0,0,.6,2,2.25,2.25,0,0,0,1.43.9,16.43,16.43,0,0,0,2.6.33v2.19H91v-2.19a16.33,16.33,0,0,0,2.55-.33,2.54,2.54,0,0,0,1.48-.87,3.88,3.88,0,0,0,.68-1.86,25.47,25.47,0,0,0,.17-3.29v-6.84c0-2.15,0-3.89-.11-5.22a19.8,19.8,0,0,0-.28-2.71A4,4,0,0,0,95,281a1.74,1.74,0,0,0-.82-.71,4.66,4.66,0,0,0-1.37-.33c-.55-.05-1.24-.08-2.08-.08V278l10.58-2.08.71,4.82h.22a12.72,12.72,0,0,1,4.27-3.56,11.76,11.76,0,0,1,5.43-1.26,14.18,14.18,0,0,1,5.67,1,9.89,9.89,0,0,1,3.86,3.2,12.68,12.68,0,0,1,1.65,3.26,17,17,0,0,1,.71,5.49v7.72a32.63,32.63,0,0,0,.14,3.53,4.33,4.33,0,0,0,.6,2,2.21,2.21,0,0,0,1.4.9,15.56,15.56,0,0,0,2.52.33v2.19H111.33v-2.19a13.21,13.21,0,0,0,2.61-.3,2.59,2.59,0,0,0,1.45-.9,4,4,0,0,0,.66-1.89,25.79,25.79,0,0,0,.16-3.26v-7.44a28.19,28.19,0,0,0-.33-4.7,8.46,8.46,0,0,0-1.07-3.1,4.28,4.28,0,0,0-1.94-1.69,7.61,7.61,0,0,0-3-.52,4.77,4.77,0,0,0-3,1,8.43,8.43,0,0,0-2.19,2.74,11.55,11.55,0,0,0-.85,2.54,14.48,14.48,0,0,0-.36,3.26Z"/><path class="cls-2" d="M130.57,279.45V277a14.32,14.32,0,0,0,5.5-2.82,12.22,12.22,0,0,0,3.32-4.35h2.8v6.62h6.3v3h-6.3v16.8a11.31,11.31,0,0,0,.73,4.81,2.6,2.6,0,0,0,2.5,1.42,3.49,3.49,0,0,0,3.23-2l1.15,1.59q-1.53,3.88-7.23,3.89a8.94,8.94,0,0,1-5.89-1.76,6,6,0,0,1-2.11-4.92V279.45Z"/><path class="cls-2" d="M169,286.94v-2.29a7.6,7.6,0,0,0-1.12-4.63,4.15,4.15,0,0,0-3.48-1.45,3.21,3.21,0,0,0-2.41.85,8.18,8.18,0,0,0-1.54,2.82,4.85,4.85,0,0,1-1.4,2.13,3.73,3.73,0,0,1-2.49.77,3,3,0,0,1-2.35-.93,3.84,3.84,0,0,1-.83-2.63c0-1.75,1-3.13,2.88-4.16s4.81-1.53,8.69-1.53q6.13,0,8.76,2.22c1.76,1.48,2.63,3.95,2.63,7.41v12q0,4.65,1.87,4.65a2.92,2.92,0,0,0,1.91-.71l.83,1.59a5.38,5.38,0,0,1-2.39,2.16,8.11,8.11,0,0,1-3.64.8,4.8,4.8,0,0,1-3.84-1.54,6.46,6.46,0,0,1-1.31-4.32h-.28a10.8,10.8,0,0,1-9.86,5.8,7.79,7.79,0,0,1-5.53-1.94,6.61,6.61,0,0,1-2.09-5.06,6.32,6.32,0,0,1,2.14-4.52,22.48,22.48,0,0,1,7.12-4.13Zm0,2.9a37.13,37.13,0,0,0-6.93,3.86q-2.33,1.79-2.33,3.69a3.5,3.5,0,0,0,.88,2.52,2.87,2.87,0,0,0,2.19.93,6.45,6.45,0,0,0,2.46-.46,6.38,6.38,0,0,0,2-1.23A5.58,5.58,0,0,0,169,295Z"/><path class="cls-2" d="M217.7,305.44H198.13v-2.19a13.76,13.76,0,0,0,3-.36,3,3,0,0,0,1.73-1.12,5.2,5.2,0,0,0,.82-2.32,30.88,30.88,0,0,0,.22-4.08v-22a30.43,30.43,0,0,0-.2-3.8,5.92,5.92,0,0,0-.73-2.38,3,3,0,0,0-1.57-1.23,10.21,10.21,0,0,0-2.71-.46v-2.19h18.47v2.19a10.21,10.21,0,0,0-2.71.46,3,3,0,0,0-1.57,1.23,6.07,6.07,0,0,0-.74,2.38,32.78,32.78,0,0,0-.19,3.8v22a35.92,35.92,0,0,0,.19,4.08,4.76,4.76,0,0,0,.83,2.32,3.13,3.13,0,0,0,1.75,1.12,13.68,13.68,0,0,0,3,.36Z"/><path class="cls-2" d="M224.33,305.44h-1.7v-10h2.3a12.24,12.24,0,0,0,2.68,5.75,6.08,6.08,0,0,0,4.55,1.8,5.11,5.11,0,0,0,3.15-.85,2.75,2.75,0,0,0,1.13-2.32,4.39,4.39,0,0,0-1.37-3,18.33,18.33,0,0,0-4.44-3.09,19.79,19.79,0,0,1-6-4.46,7.7,7.7,0,0,1-1.8-5,8.22,8.22,0,0,1,.68-3.37,8.72,8.72,0,0,1,1.86-2.71,8.29,8.29,0,0,1,2.83-1.77,9.83,9.83,0,0,1,3.56-.63,11.85,11.85,0,0,1,3.37.49,10,10,0,0,1,2.93,1.37l1-1.32h1.42v8.27h-2.14a13.9,13.9,0,0,0-2.6-4.49,4.4,4.4,0,0,0-3.26-1.37,3.53,3.53,0,0,0-2.44.82,2.83,2.83,0,0,0-.9,2.19,4.09,4.09,0,0,0,1.34,2.9,18.25,18.25,0,0,0,4.47,3,37.16,37.16,0,0,1,3.78,2.35,13.82,13.82,0,0,1,2.57,2.33,7.68,7.68,0,0,1,1.92,5.22,8.15,8.15,0,0,1-.71,3.45,7.54,7.54,0,0,1-2,2.63,9.51,9.51,0,0,1-3.15,1.69,13,13,0,0,1-4.08.61,14.42,14.42,0,0,1-4.39-.64,8.48,8.48,0,0,1-3.34-1.83Z"/><path class="cls-2" d="M264.05,286.94v-2.29a7.6,7.6,0,0,0-1.12-4.63,4.15,4.15,0,0,0-3.48-1.45,3.23,3.23,0,0,0-2.41.85,8,8,0,0,0-1.53,2.82,4.93,4.93,0,0,1-1.4,2.13,3.75,3.75,0,0,1-2.49.77,3,3,0,0,1-2.36-.93,3.84,3.84,0,0,1-.82-2.63c0-1.75,1-3.13,2.87-4.16s4.82-1.53,8.69-1.53q6.13,0,8.77,2.22t2.63,7.41v12q0,4.65,1.86,4.65a3,3,0,0,0,1.92-.71L276,303a5.35,5.35,0,0,1-2.38,2.16,8.19,8.19,0,0,1-3.65.8,4.76,4.76,0,0,1-3.83-1.54,6.41,6.41,0,0,1-1.32-4.32h-.27a10.8,10.8,0,0,1-9.87,5.8,7.8,7.8,0,0,1-5.53-1.94,6.6,6.6,0,0,1-2.08-5.06,6.31,6.31,0,0,1,2.13-4.52,22.43,22.43,0,0,1,7.13-4.13Zm0,2.9a37.47,37.47,0,0,0-6.93,3.86q-2.33,1.79-2.33,3.69a3.5,3.5,0,0,0,.88,2.52,2.87,2.87,0,0,0,2.19.93,6.54,6.54,0,0,0,2.47-.46,6.45,6.45,0,0,0,2-1.23,5.46,5.46,0,0,0,1.29-1.84,5.62,5.62,0,0,0,.46-2.27Z"/><path class="cls-2" d="M288.88,280.21h.22a9.61,9.61,0,0,1,3.67-3.2,11.31,11.31,0,0,1,5.09-1.12,12.4,12.4,0,0,1,5.4,1.18,13.56,13.56,0,0,1,4.33,3.2,15.12,15.12,0,0,1,2.88,4.76,16.37,16.37,0,0,1,1,5.85,16.08,16.08,0,0,1-1.12,6.05,15.14,15.14,0,0,1-3.07,4.79,14.34,14.34,0,0,1-4.55,3.17,13.44,13.44,0,0,1-5.51,1.15,13.75,13.75,0,0,1-5.67-1.18,11.33,11.33,0,0,1-4.25-3.09l-4.16,3.67h-1.87V272.88c0-3.43-.23-5.78-.71-7.06a3.09,3.09,0,0,0-.38-.65,1.86,1.86,0,0,0-.63-.47,5.84,5.84,0,0,0-1.13-.33q-.7-.14-1.86-.3v-1.86L288.88,260Zm.11,13.25a11.87,11.87,0,0,0,.57,3.74,10.2,10.2,0,0,0,1.56,3,7.27,7.27,0,0,0,2.36,2,6.37,6.37,0,0,0,3,.72,5.42,5.42,0,0,0,5-3c1.13-2,1.7-5,1.7-8.87s-.56-6.68-1.67-8.67a5.41,5.41,0,0,0-5-3,6.56,6.56,0,0,0-3.64,1.07,7.14,7.14,0,0,0-2.6,3A15.3,15.3,0,0,0,289,290Z"/><path class="cls-2" d="M343.18,300.35A15.92,15.92,0,0,1,330.74,306a17,17,0,0,1-6.16-1.07,13.43,13.43,0,0,1-7.81-7.63,15.67,15.67,0,0,1-1.1-6,16.42,16.42,0,0,1,1.15-6.21,14.33,14.33,0,0,1,3.26-4.87,15.15,15.15,0,0,1,5-3.2,16.86,16.86,0,0,1,6.33-1.15q5.81,0,9,3.12t3.24,8.75c0,.59-.1.94-.28,1.07a3.45,3.45,0,0,1-1.53.19H324.22a5.18,5.18,0,0,0-.22,1.81q0,5.35,2.33,8.48a7.47,7.47,0,0,0,6.33,3.12,11,11,0,0,0,4.58-1,17.67,17.67,0,0,0,4.41-3ZM332.55,286a9.54,9.54,0,0,0,2.82-.25q.63-.24.63-1.17a5.65,5.65,0,0,0-1.37-3.94,4.42,4.42,0,0,0-3.45-1.53A5.6,5.6,0,0,0,327,281a9.44,9.44,0,0,0-2.38,4.95Z"/><path class="cls-2" d="M359.18,296.46a29.42,29.42,0,0,0,.17,3.51,4.66,4.66,0,0,0,.65,2,2.44,2.44,0,0,0,1.43,1,12.38,12.38,0,0,0,2.52.3v2.19H346.69v-2.19a9.85,9.85,0,0,0,2.49-.36,2.91,2.91,0,0,0,1.48-1,4.13,4.13,0,0,0,.71-1.92,20.64,20.64,0,0,0,.2-3.14v-22.6c0-2.11,0-3.86-.11-5.23a22.15,22.15,0,0,0-.28-2.81A2.31,2.31,0,0,0,350,264.4a9.45,9.45,0,0,0-3.48-.44V262.1L359.18,260Z"/><image width="1544" height="1586" transform="translate(73.33) scale(0.15)" xlink:href="logosss/logoHome1.png"/></g></g></svg>